<svg width="99" height="110" viewBox="0 0 99 110" fill="none" xmlns="http://www.w3.org/2000/svg">
<path fill-rule="evenodd" clip-rule="evenodd" d="M0 2.99994C0 1.34308 1.34315 -6.10352e-05 3 -6.10352e-05H96C97.6569 -6.10352e-05 99 1.34308 99 2.99994V13.5111H0V2.99994ZM0 14.5111H99V107C99 108.657 97.6569 110 96 110H3C1.34314 110 0 108.657 0 107V14.5111ZM23.5738 9.62056C25.0926 9.62056 26.3238 8.37376 26.3238 6.83575C26.3238 5.29774 25.0926 4.05094 23.5738 4.05094C22.055 4.05094 20.8238 5.29774 20.8238 6.83575C20.8238 8.37376 22.055 9.62056 23.5738 9.62056ZM10.103 9.62209C11.6218 9.62209 12.853 8.37529 12.853 6.83728C12.853 5.29927 11.6218 4.05247 10.103 4.05247C8.58419 4.05247 7.35297 5.29927 7.35297 6.83728C7.35297 8.37529 8.58419 9.62209 10.103 9.62209ZM39.7998 6.83575C39.7998 8.37376 38.5686 9.62056 37.0498 9.62056C35.531 9.62056 34.2998 8.37376 34.2998 6.83575C34.2998 5.29774 35.531 4.05094 37.0498 4.05094C38.5686 4.05094 39.7998 5.29774 39.7998 6.83575ZM58.6579 26.1247L78.9012 54.9997H48.5657L24.75 54.9997L36.6578 38.4997L43.4165 47.8648L58.6579 26.1247ZM42.8453 35.7499C44.7438 35.7499 46.2828 34.2109 46.2828 32.3124C46.2828 30.4139 44.7438 28.8749 42.8453 28.8749C40.9468 28.8749 39.4078 30.4139 39.4078 32.3124C39.4078 34.2109 40.9468 35.7499 42.8453 35.7499ZM32.1249 60.875C31.8488 60.875 31.6249 61.0988 31.6249 61.375C31.6249 61.6511 31.8488 61.875 32.1249 61.875H72.3749C72.651 61.875 72.8749 61.6511 72.8749 61.375C72.8749 61.0988 72.651 60.875 72.3749 60.875H32.1249ZM45.3751 68.2499C45.3751 67.9737 45.5989 67.7499 45.8751 67.7499H60C60.2762 67.7499 60.5 67.9737 60.5 68.2499C60.5 68.526 60.2762 68.7499 60 68.7499H45.8751C45.5989 68.7499 45.3751 68.526 45.3751 68.2499ZM45.875 81.4999C45.5989 81.4999 45.375 81.7238 45.375 81.9999C45.375 82.2761 45.5989 82.4999 45.875 82.4999H60C60.2761 82.4999 60.5 82.2761 60.5 81.9999C60.5 81.7238 60.2761 81.4999 60 81.4999H45.875ZM45.375 87.5C45.375 87.2238 45.5989 87 45.875 87H86.125C86.4012 87 86.625 87.2238 86.625 87.5C86.625 87.7761 86.4012 88 86.125 88H45.875C45.5989 88 45.375 87.7761 45.375 87.5ZM45.875 92.5C45.5989 92.5 45.375 92.7238 45.375 93C45.375 93.2761 45.5989 93.5 45.875 93.5H86.125C86.4012 93.5 86.625 93.2761 86.625 93C86.625 92.7238 86.4012 92.5 86.125 92.5H45.875Z" fill="#00AB6D"/>
<circle cx="26.8125" cy="87.3125" r="10.3125" fill="white"/>
</svg>
