<svg width="170" height="136" viewBox="0 0 170 136" fill="none" xmlns="http://www.w3.org/2000/svg">
<path fill-rule="evenodd" clip-rule="evenodd" d="M34.0792 0.755615C32.4224 0.755615 31.0792 2.09877 31.0792 3.75562V20.6985H169.757V3.75562C169.757 2.09876 168.414 0.755615 166.757 0.755615H34.0792ZM169.757 21.6985H31.0792V63.0052L86.2153 108.302H166.757C168.414 108.302 169.757 106.958 169.757 105.302V21.6985ZM58.0277 10.8952C58.0277 12.8229 56.4755 14.3857 54.5607 14.3857C52.646 14.3857 51.0938 12.8229 51.0938 10.8952C51.0938 8.96741 52.646 7.40465 54.5607 7.40465C56.4755 7.40465 58.0277 8.96741 58.0277 10.8952ZM44.1643 10.8962C44.1643 12.8239 42.6121 14.3867 40.6974 14.3867C38.7826 14.3867 37.2304 12.8239 37.2304 10.8962C37.2304 8.96842 38.7826 7.40566 40.6974 7.40566C42.6121 7.40566 44.1643 8.96842 44.1643 10.8962ZM68.4296 14.3857C70.3443 14.3857 71.8965 12.8229 71.8965 10.8952C71.8965 8.96741 70.3443 7.40465 68.4296 7.40465C66.5149 7.40465 64.9627 8.96741 64.9627 10.8952C64.9627 12.8229 66.5149 14.3857 68.4296 14.3857Z" fill="url(#paint0_linear_123_412)"/>
<path fill-rule="evenodd" clip-rule="evenodd" d="M34.0792 0.755615C32.4224 0.755615 31.0792 2.09877 31.0792 3.75562V20.6985H169.757V3.75562C169.757 2.09876 168.414 0.755615 166.757 0.755615H34.0792ZM169.757 21.6985H31.0792V63.0052L86.2153 108.302H166.757C168.414 108.302 169.757 106.958 169.757 105.302V21.6985ZM58.0277 10.8952C58.0277 12.8229 56.4755 14.3857 54.5607 14.3857C52.646 14.3857 51.0938 12.8229 51.0938 10.8952C51.0938 8.96741 52.646 7.40465 54.5607 7.40465C56.4755 7.40465 58.0277 8.96741 58.0277 10.8952ZM44.1643 10.8962C44.1643 12.8239 42.6121 14.3867 40.6974 14.3867C38.7826 14.3867 37.2304 12.8239 37.2304 10.8962C37.2304 8.96842 38.7826 7.40566 40.6974 7.40566C42.6121 7.40566 44.1643 8.96842 44.1643 10.8962ZM68.4296 14.3857C70.3443 14.3857 71.8965 12.8229 71.8965 10.8952C71.8965 8.96741 70.3443 7.40465 68.4296 7.40465C66.5149 7.40465 64.9627 8.96741 64.9627 10.8952C64.9627 12.8229 66.5149 14.3857 68.4296 14.3857Z" fill="#00AB6D"/>
<path d="M26.1759 67.3335L78.4844 110.913L45.1623 110.913L25.1176 133.404L26.1759 67.3335Z" fill="white"/>
<defs>
<linearGradient id="paint0_linear_123_412" x1="104.838" y1="-18.7711" x2="34.0747" y2="74.9135" gradientUnits="userSpaceOnUse">
<stop stop-color="#02BF95"/>
<stop offset="1" stop-color="#12473A"/>
</linearGradient>
</defs>
</svg>
