<svg width="147" height="138" viewBox="0 0 147 138" fill="none" xmlns="http://www.w3.org/2000/svg">
<path fill-rule="evenodd" clip-rule="evenodd" d="M89.892 87.3911C89.892 85.1819 91.6829 83.3911 93.892 83.3911H143C145.209 83.3911 147 85.1819 147 87.3911V106.517C147 108.726 145.209 110.517 143 110.517H93.892C91.6829 110.517 89.892 108.726 89.892 106.517V87.3911Z" fill="white"/>
<path fill-rule="evenodd" clip-rule="evenodd" d="M35.6925 27.9999C35.6925 24.6862 38.3788 21.9999 41.6925 21.9999H104.705C108.018 21.9999 110.705 24.6862 110.705 27.9999V44.1281H35.6925V27.9999ZM35.6925 45.1281H110.705V79.108H89.6089C87.3998 79.108 85.6089 80.8989 85.6089 83.108V110.801C85.6089 113.01 87.3998 114.801 89.6089 114.801H110.705V131.644C110.705 134.957 108.018 137.644 104.705 137.644H41.6925C38.3788 137.644 35.6925 134.957 35.6925 131.644V45.1281ZM61.1965 33.5016C60.9203 33.5016 60.6965 33.7254 60.6965 34.0016C60.6965 34.2777 60.9203 34.5016 61.1965 34.5016H85.2005C85.4766 34.5016 85.7005 34.2777 85.7005 34.0016C85.7005 33.7254 85.4766 33.5016 85.2005 33.5016H61.1965ZM77.8868 126.705C77.8868 129.294 75.7878 131.393 73.1985 131.393C70.6092 131.393 68.5102 129.294 68.5102 126.705C68.5102 124.115 70.6092 122.016 73.1985 122.016C75.7878 122.016 77.8868 124.115 77.8868 126.705Z" fill="#00AB6D"/>
<path fill-rule="evenodd" clip-rule="evenodd" d="M27.4094 0C29.6185 0 31.4094 1.79086 31.4094 4V14.9562V21.9944C31.4094 23.283 28.1698 21.2686 26.4356 20.098C25.7342 19.6245 24.9132 19.3551 24.067 19.3551H4C1.79086 19.3551 1.90735e-06 17.5642 1.90735e-06 15.3551V4C1.90735e-06 1.79086 1.79086 0 4 0H27.4094ZM5.58603 5.45715C5.39273 5.45715 5.23603 5.61385 5.23603 5.80715C5.23603 6.00045 5.39273 6.15715 5.58603 6.15715H25.8256C26.0189 6.15715 26.1756 6.00045 26.1756 5.80715C26.1756 5.61385 26.0189 5.45715 25.8256 5.45715H5.58603ZM5.58603 9.85712C5.39273 9.85712 5.23603 10.0138 5.23603 10.2071C5.23603 10.4004 5.39273 10.5571 5.58603 10.5571H25.8256C26.0189 10.5571 26.1756 10.4004 26.1756 10.2071C26.1756 10.0138 26.0189 9.85712 25.8256 9.85712H5.58603ZM5.23603 14.6064C5.23603 14.4131 5.39273 14.2564 5.58603 14.2564H15.3558C15.5491 14.2564 15.7058 14.4131 15.7058 14.6064C15.7058 14.7997 15.5491 14.9564 15.3558 14.9564H5.58603C5.39273 14.9564 5.23603 14.7997 5.23603 14.6064Z" fill="#00AB6D"/>
</svg>
